# xmcd
#
# Track frame offsets:
#	150
#	14717
#	29605
#	43147
#	58070
#	73435
#	88612
#	99242
#
# Disc length: 1456 seconds
#
# Revision: 0
# Processed by: cddbd v1.4b42PL1 Copyright (c) Steve Scherf et al.
# Submitted via: dBpowerAMP V4.0
#
DISCID=7205ae08
DTITLE=Waylon Jennings - The Best of
DYEAR=1900
DGENRE=
TTITLE0=Good Morning John
TTITLE1=The Broken Promise Land
TTITLE2=Rhiannon
TTITLE3=Those Kind of Memories
TTITLE4=The Days of Sand and Shovels
TTITLE5=Delia's Gone
TTITLE6=Walk On Out of My Mind
TTITLE7=Ruby, Don't Take Your Love To Town
EXTD=
EXTT0=
EXTT1=
EXTT2=
EXTT3=
EXTT4=
EXTT5=
EXTT6=
EXTT7=
PLAYORDER=
